<svg width="154" height="110.00000000000001" xmlns="http://www.w3.org/2000/svg">

 <g>
  <title>Layer 1</title>
  <path id="svg_1" d="m13.5,6l127.5,0c0.49219,0 0.98047,0.04688 1.46484,0.14453c0.48047,0.09375 0.94922,0.23828 1.40625,0.42578c0.45313,0.1875 0.88672,0.42188 1.29688,0.69532c0.41016,0.27343 0.78516,0.58203 1.13672,0.92968c0.34765,0.34766 0.65625,0.72657 0.92969,1.13672c0.27343,0.41016 0.50781,0.84375 0.69531,1.29688c0.1875,0.45703 0.33203,0.92578 0.42578,1.40625c0.09766,0.48437 0.14453,0.97265 0.14453,1.46484l0,84c0,0.49219 -0.04687,0.98047 -0.14453,1.46484c-0.09375,0.48047 -0.23828,0.94922 -0.42578,1.40625c-0.1875,0.45313 -0.42188,0.88672 -0.69531,1.29688c-0.27344,0.41016 -0.58204,0.78516 -0.92969,1.13672c-0.35156,0.34765 -0.72656,0.65625 -1.13672,0.92969c-0.41016,0.27343 -0.84375,0.50781 -1.29688,0.69531c-0.45703,0.1875 -0.92578,0.33203 -1.40625,0.42578c-0.48437,0.09766 -0.97265,0.14453 -1.46484,0.14453l-127.5,0c-0.49219,0 -0.98047,-0.04687 -1.46484,-0.14453c-0.48047,-0.09375 -0.94922,-0.23828 -1.40625,-0.42578c-0.45313,-0.1875 -0.88672,-0.42188 -1.29688,-0.69531c-0.41015,-0.27344 -0.78906,-0.58204 -1.13672,-0.92969c-0.34765,-0.35156 -0.65625,-0.72656 -0.92968,-1.13672c-0.27344,-0.41016 -0.50782,-0.84375 -0.69532,-1.29688c-0.1875,-0.45703 -0.33203,-0.92578 -0.42578,-1.40625c-0.09765,-0.48437 -0.14453,-0.97265 -0.14453,-1.46484l0,-84c0,-0.49219 0.04688,-0.98047 0.14453,-1.46484c0.09375,-0.48047 0.23828,-0.94922 0.42578,-1.40625c0.1875,-0.45313 0.42188,-0.88672 0.69532,-1.29688c0.27343,-0.41015 0.58203,-0.78906 0.92968,-1.13672c0.34766,-0.34765 0.72657,-0.65625 1.13672,-0.92968c0.41016,-0.27344 0.84375,-0.50782 1.29688,-0.69532c0.45703,-0.1875 0.92578,-0.33203 1.40625,-0.42578c0.48437,-0.09765 0.97265,-0.14453 1.46484,-0.14453zm0,0" fill="rgb(0%, 0%, 0%)" fill-rule="nonzero"/>
  <path id="svg_2" d="m22,21.27344l7.45703,0.08984l6.64063,0.45703l2.18359,6.63672l12.73047,45.10938l-2.18359,-46.01953l-0.17969,-4.72657l3.82031,0.36328l3.54688,0l0.63671,5.09375c0.08985,2.81641 0.54297,6 0.54297,7.54688c0,1.63672 -0.54297,13.36719 -0.54297,24.64453c0,6.64063 0,14.00781 -0.09375,22.19141l-0.54296,6.27734l-5.73047,0.91016l-7.36719,-0.27344l-6.45703,-21.00781l-2.09375,-14.00782l-0.08985,34.83204l-11.45703,0.18359l-1.82031,-1.09375l0.82031,-28.10156l0.17969,-39.10547zm41.01563,0.63672l4.45703,0.08984l21.73828,-0.08984l4.08984,0.27343l0.27344,8.82032l-0.27344,8.09375l-9.09375,-0.27344l-8.45703,-0.36328l0.27344,5.0039l-0.27344,4.82032l15.1875,-0.36328l-0.08984,5.82031l-0.63672,1.8164l-13.82422,0.72657l-1.09375,0.27343l0.09375,15.55469l0,3.81641l9.91016,0.45703l7.09375,0l-0.17969,13.09375l-11.1875,-0.45313l-17.3711,0.45313l-1.17968,-14.27734l1.08984,-24.91797l-1,-22.46485l0.45313,-5.91015zm70.48437,8.54687l-0.54687,50.11328l-0.81641,6l-3.00391,2.45703l-9.91015,1l-17.55469,-1.08984l-2.27344,-2.54687l-2.08984,-3.73047l0.54297,-15.91407c0.09375,-7.0039 0.09375,-13.1875 0.09375,-18.73437c0,-9.36719 0.36328,-18.73438 0.36328,-19.28125c0,-0.36328 0.63672,-2 1.27344,-3.45703c0.54296,-0.81641 1,-1.81641 1.45312,-2.91016l14.91797,-1.36328l10.73047,1.27344l5.45703,2l1.36328,6.18359zm-18.91797,51.38672l3.91016,-1.82031l1.91015,-38.74219l-2.45312,-1.27344l-9.46094,0.27344l-1.17969,3.08984l0,17.28125l-0.45703,21.00782l1.63672,0.27343l6.09375,-0.08984zm0,0" fill="rgb(100%, 100%, 100%)" fill-rule="nonzero"/>
 </g>
</svg>